<svg width="14" height="14" viewBox="0 0 14 14" fill="none" xmlns="http://www.w3.org/2000/svg">
<path d="M12.4323 0C12.8698 0 13.2344 0.157986 13.526 0.473958C13.842 0.765625 14 1.13021 14 1.56771V12.4323C14 12.8698 13.842 13.2465 13.526 13.5625C13.2344 13.8542 12.8698 14 12.4323 14H1.56771C1.13021 14 0.753472 13.8542 0.4375 13.5625C0.145833 13.2465 0 12.8698 0 12.4323V1.56771C0 1.13021 0.145833 0.765625 0.4375 0.473958C0.753472 0.157986 1.13021 0 1.56771 0H12.4323ZM5.43229 10.901L12.4323 3.90104L11.3385 2.77083L5.43229 8.67708L2.66146 5.90625L1.56771 7L5.43229 10.901Z" fill="black"/>
</svg>
